<svg width="14" height="14" viewBox="0 0 14 14" fill="none" xmlns="http://www.w3.org/2000/svg">
<path d="M9.82227 0C11.6302 0.000212328 13.0957 1.46639 13.0957 3.27441V9.82227C13.0955 11.6301 11.6301 13.0955 9.82227 13.0957H3.27441C1.46639 13.0957 0.000212328 11.6302 0 9.82227V3.27441C0 1.46626 1.46626 0 3.27441 0H9.82227ZM6.95996 3.92871C6.41509 3.84791 5.85809 3.94068 5.36914 4.19434C4.88014 4.44807 4.48303 4.84971 4.23535 5.3418C3.98771 5.83384 3.90176 6.39169 3.98926 6.93555C4.07678 7.47943 4.33412 7.98155 4.72363 8.37109C5.11317 8.76063 5.61529 9.01794 6.15918 9.10547C6.70304 9.19298 7.26087 9.10701 7.75293 8.85938C8.24502 8.61169 8.64666 8.21458 8.90039 7.72559C9.15396 7.23677 9.2467 6.68047 9.16602 6.13574C9.08359 5.57987 8.82509 5.06435 8.42773 4.66699C8.03048 4.26977 7.51564 4.0112 6.95996 3.92871ZM10.2051 2.38867C10.0812 2.37031 9.95489 2.39155 9.84375 2.44922C9.73265 2.50689 9.64222 2.59815 9.58594 2.70996C9.52985 2.82158 9.51052 2.94795 9.53027 3.07129C9.55017 3.1949 9.60873 3.3099 9.69727 3.39844C9.78575 3.48678 9.89998 3.54459 10.0234 3.56445C10.147 3.58431 10.2739 3.56506 10.3857 3.50879C10.4974 3.45249 10.5889 3.36201 10.6465 3.25098C10.704 3.13995 10.7254 3.01334 10.707 2.88965C10.6883 2.76355 10.6291 2.64686 10.5391 2.55664C10.4488 2.46633 10.3314 2.40741 10.2051 2.38867Z" fill="white"/>
</svg>
