<svg width="14" height="14" viewBox="0 0 14 14" fill="none" xmlns="http://www.w3.org/2000/svg">
<path d="M9.7999 4.2002C10.9139 4.2002 11.9822 4.64272 12.77 5.43043C13.5577 6.21814 14.0002 7.2865 14.0002 8.40049V13.3008H11.2V8.40049C11.2 8.02916 11.0525 7.67304 10.7899 7.41047C10.5273 7.1479 10.1712 7.00039 9.7999 7.00039C9.42857 7.00039 9.07245 7.1479 8.80988 7.41047C8.54731 7.67304 8.3998 8.02916 8.3998 8.40049V13.3008H5.59961V8.40049C5.59961 7.2865 6.04214 6.21814 6.82985 5.43043C7.61755 4.64272 8.68591 4.2002 9.7999 4.2002Z" fill="white"/>
<path d="M2.80019 4.90039H0V13.301H2.80019V4.90039Z" fill="white"/>
<path d="M1.4001 2.80019C2.17335 2.80019 2.80019 2.17335 2.80019 1.4001C2.80019 0.626845 2.17335 0 1.4001 0C0.626845 0 0 0.626845 0 1.4001C0 2.17335 0.626845 2.80019 1.4001 2.80019Z" fill="white"/>
</svg>
