<svg width="24" height="24" viewBox="0 0 24 24" fill="none" xmlns="http://www.w3.org/2000/svg">
<path d="M9.08365 14.2572C11.3549 16.524 14.2106 17.2397 14.2106 17.2397L16.7149 14.6402C17.5671 13.7897 18.5452 13.9775 19.8036 14.6297L21.1307 15.3751C22.0327 15.8817 22.6022 16.8334 22.6001 17.868C22.6 17.8761 22.6 17.8842 22.6 17.8922C22.5941 18.677 22.2738 19.5701 21.4815 20.3625C19.5478 22.2962 16.8994 22.6185 14.7233 22.5993C11.0512 22.5669 7.76934 20.2134 5.35498 17.799C2.94061 15.3847 0.633358 12.1495 0.600918 8.47738C0.581669 6.30125 0.888865 3.65298 2.8226 1.71921C3.61495 0.926872 4.5081 0.606674 5.29285 0.600755C5.30096 0.600708 5.30902 0.600662 5.31708 0.600662C6.3517 0.598518 7.30335 1.16802 7.81003 2.07008L8.55544 3.3971C9.11474 4.5623 9.39546 5.63359 8.54495 6.48573L6.03858 9.08366C6.03858 9.08366 6.8168 11.9859 9.08365 14.2572Z" stroke="black" stroke-width="1.2" stroke-miterlimit="10" stroke-linecap="round"/>
<path d="M22.5993 10.854C22.5993 5.19098 18.0085 0.60022 12.3455 0.60022" stroke="black" stroke-width="1.2" stroke-miterlimit="10"/>
<path d="M15.142 10.854C15.142 9.30955 13.8899 8.05752 12.3455 8.05752" stroke="black" stroke-width="1.2" stroke-miterlimit="10"/>
<path d="M18.8706 10.854C18.8706 7.25026 15.9492 4.32887 12.3455 4.32887" stroke="black" stroke-width="1.2" stroke-miterlimit="10"/>
</svg>
